PathFileType	4	(X/Y/Z)	/home/abdul/Desktop/myosuite/custom_workspace/IK/output/S11_12_2.trc
DataRate	CameraRate	NumFrames	NumMarkers	Units	OrigDataRate	OrigDataStartFrame	OrigNumFrames
200.0	200.0	28	3	mm	200.0	1	1500
Frame#	Time	V_Shoulder			V_Elbow			V_Wrist		
		X1	Y1	Z1	X2	Y2	Z2	X3	Y3	Z3

1	0.0	-117.09660653019121	592.4784667650096	269.6475439377629	-287.25937505980176	415.97225674602157	36.39429262401643	-201.43614269564927	192.46446544446917	56.62174293723906
2	0.005	-117.10322289331872	592.4545446827823	269.60806824877454	-287.2645434421659	415.968166160668	36.37922421902042	-201.4266289083926	192.46954312805275	56.601960734146544
3	0.01	-117.10951526698882	592.4300757865674	269.568785719573	-287.2694670957423	415.96426937725556	36.36348739289326	-201.41662459185702	192.47499376432262	56.58015432130862
4	0.015	-117.1154402831941	592.405072109328	269.5298029734499	-287.2741294811676	415.9605826371842	36.34710792906725	-201.40614448219867	192.4808148861211	56.55627718163467
5	0.02	-117.12095336819345	592.3795463318231	269.4912294269711	-287.2785146195612	415.9571218007065	36.33011552610719	-201.39520557505577	192.4870023001809	56.53028768739428
6	0.025	-117.1260088072072	592.3535117468508	269.45317707336295	-287.2826071635026	415.9539022597992	36.312543893615015	-201.3838271291248	192.49355000216104	56.50214950485787
7	0.03	-117.13055981309407	592.3269822226864	269.41576025570026	-287.2863924662828	415.9509388489405	36.294430838684036	-201.3720306580355	192.50045009342122	56.47183200013855
8	0.035	-117.13455859882397	592.299972165884	269.37909543056884	-287.28985664899795	415.9482457540272	36.27581834219752	-201.35983990987697	192.50769269988194	56.439310644792535
9	0.04	-117.1379564535519	592.2724964835943	269.3433009228995	-287.2929866650577	415.9458364196764	36.25675262427947	-201.34728083374995	192.5152658933231	56.40456741966749
10	0.045	-117.14070382208934	592.2445705455435	269.3084966726894	-287.2957703616793	415.94372345516524	36.237284198223406	-201.3343815327474	192.52315561547908	56.367591215423786
11	0.05	-117.14275038756438	592.216210145807	269.2748039743414	-287.2981965379429	415.94191853927543	36.21746791224625	-201.3211722027966	192.5313456052931	56.3283782280928
12	0.055	-117.1440451570535	592.187431464494	269.24234520936824	-287.3002549989913	415.9404323243145	36.197362978440104	-201.3076850568296	192.53981732969453	56.286932347980304
13	0.06	-117.1445365499661	592.1582510294501	269.21124357321565	-287.3019366059614	415.9392743395973	36.17703298832354	-201.29395423378898	192.5485499182645	56.24326554017185
14	0.065	-117.14417248895643	592.1286856780663	269.18162279697015	-287.3032333212489	415.9384528946763	36.15654591442729	-201.28001569201678	192.55752010215426	56.197398214851205
15	0.07	-117.1429004931357	592.098752519273	269.1536068647223	-287.30413824871584	415.9379749826185	36.135974097385876	-201.2659070866217	192.5667021576183	56.14935958560264
16	0.075	-117.14066777335353	592.0684688957784	269.12731972736145	-287.30464566846604	415.9378461836302	36.115394218047044	-201.2516676304692	192.57606785452077	56.09918801383424
17	0.08	-117.13742132931618	592.0378523465989	269.10288501357985	-287.3047510658288	415.93807056933736	36.09488725415494	-201.2373379384926	192.58558641016765	56.04693133743224
18	0.085	-117.13310804830672	592.0069205699119	269.080425738868	-287.3044511542082	415.93865060803415	36.07453842121027	-201.22295985508077	192.5952244488082	55.9926471817364
19	0.09	-117.12767480527087	591.9756913862497	269.0600640132797	-287.3037438914745	415.93958707121385	36.05443709716161	-201.20857626435844	192.60494596714256	55.936403250914
20	0.095	-117.12106856403084	591.9441827020345	269.04192074874874	-287.3026284895948	415.9408789417	36.03467673063583	-201.1942308832389	192.6147123061573	55.878277597805635
21	0.1	-117.11323647938843	591.9124124734482	269.0261153667309	-287.30110541722354	415.9425233236961	36.015354732472694	-201.1799680371972	192.6244821296001	55.818358870320196
22	0.105	-117.1041259998778	591.8803986706048	269.01276550694814	-287.2991763949964	415.9445153550731	35.99657235038866	-201.16583241878135	192.63421140938743	55.756746532468426
23	0.11	-117.09368497092736	591.8481592419948	269.0019867380018	-287.2968443832978	415.9468481222132	35.97843452665743	-201.15186882895318	192.64385341822162	55.6935510581469
24	0.115	-117.08186173818972	591.815712079148	268.9938922706189	-287.2941135623006	415.9495125777262	35.96104973875987	-201.13812190142772	192.6533587296746	55.62889409581501
25	0.12	-117.06860525079837	591.783074981454	268.98859267428884	-287.29098930410294	415.95249746135164	35.94452982302321	-201.1246358102587	192.66267522597272	55.5629086022484
26	0.125	-117.0538651643083	591.7502656210705	268.986195598037	-287.28747813682094	415.9557892243582	35.928989781338736	-201.1114539609997	192.6717481136929	55.49573894360296
27	0.13	-117.03759194307936	591.7173015078396	268.9868054960778	-287.28358770052637	415.95937195774275	35.914547571118206	-201.09861866585686	192.68051994755479	55.42754096208422
28	0.135	-117.01973696185944	591.6841999541168	268.9905233590739	-287.2793266949518	415.9632273245289	35.90132387872161	-201.08617080333357	192.68893066246403	55.358482006588034
